# xmcd
#
# Track frame offsets:
#	150
#	8163
#	18972
#	28851
#	38598
#	47886
#	58839
#	69816
#	81810
#	94125
#	107559
#	116667
#	128091
#	140220
#	153421
#	166255
#	179068
#	194725
#	201865
#	214831
#	225097
#	249847
#	263101
#	277636
#	292942
#
# Disc length: 4067 seconds
#
# Revision: 0
# Processed by: cddbd v1.5.2PL0 Copyright (c) Steve Scherf et al.
# Submitted via: EZCDAudioConverter 2.2.2.1
#
DISCID=580fe119
DTITLE=Elvis Presley - Full Of Rhythm and Blues
DYEAR=2011
DGENRE=
TTITLE0=That's All Right (live, October 16, 1954)
TTITLE1=So Glad You're Mine (master)
TTITLE2=Lawdy, Miss Clawdy (take 5)
TTITLE3=Baby, Let's Play House (live, February 4, 1956)
TTITLE4=Don't Leave Me Now (take 13)
TTITLE5=Ain't That Loving You Baby (take 1)
TTITLE6=A Mess of Blues (take 3)
TTITLE7=Like A Baby (spliced take)
TTITLE8=Give Me the Right (take 2)
TTITLE9=I Feel So Bad (take 1)
TTITLE10=Beach Boy Blues (take 3)
TTITLE11=Little Sister (take 6)
TTITLE12=Tomorrow Night (1965 overdub, corrected speed)
TTITLE13=Hard Luck (master)
TTITLE14=Down in the Alley (take 1)
TTITLE15=City By Night (take 10)
TTITLE16=Big Boss Man (take 2)
TTITLE17=When it Rains It Really Pours (rehearsal, June 24, 1968 - edited)    
TTITLE18=Tiger Man (rehearsal, June 25, 1968 - edited)
TTITLE19=One Night (live, February 23, 1970 - Elvis on Electric Guitar)
TTITLE20=Stranger in My Own Home Town (rehearsal, July 24, 1970)
TTITLE21=My Baby Left Me -rehearsal july 29, 1970 - edited)
TTITLE22=Steamroller Blues (live, January 12, 1973  - alternate mix)
TTITLE23=Good Time Charlie's Got the Blues (take 6)
TTITLE24=Reconsider Baby (live, February 21, 1977)
EXTD=
EXTT0=
EXTT1=
EXTT2=
EXTT3=
EXTT4=
EXTT5=
EXTT6=
EXTT7=
EXTT8=
EXTT9=
EXTT10=
EXTT11=
EXTT12=
EXTT13=
EXTT14=
EXTT15=
EXTT16=
EXTT17=
EXTT18=
EXTT19=
EXTT20=
EXTT21=
EXTT22=
EXTT23=
EXTT24=
PLAYORDER=
